<?xml version="1.0" standalone="no"?><!DOCTYPE svg PUBLIC "-//W3C//DTD SVG 1.1//EN" "http://www.w3.org/Graphics/SVG/1.1/DTD/svg11.dtd"><svg t="1618903346871" class="icon" viewBox="0 0 1024 1024" version="1.1" xmlns="http://www.w3.org/2000/svg" p-id="2670" xmlns:xlink="http://www.w3.org/1999/xlink" width="40" height="40"><defs><style type="text/css"></style></defs><path d="M512 512m-512 0a512 512 0 1 0 1024 0 512 512 0 1 0-1024 0Z" fill="#FFE8CC" p-id="2671"></path><path d="M512 512m-409.6 0a409.6 409.6 0 1 0 819.2 0 409.6 409.6 0 1 0-819.2 0Z" fill="#FFBC50" p-id="2672"></path><path d="M608.256 322.4576a19.7632 19.7632 0 0 1-8.6016-1.8432 211.6608 211.6608 0 0 0-30.72-11.264 20.48 20.48 0 0 1 11.0592-39.424 232.3456 232.3456 0 0 1 36.7616 13.5168 20.48 20.48 0 0 1-8.4992 39.0144zM686.592 683.6224a20.48 20.48 0 0 1-15.4624-33.8944 211.2512 211.2512 0 0 0 30.72-46.3872 20.48 20.48 0 0 1 36.9664 17.7152 253.952 253.952 0 0 1-36.5568 55.5008 20.48 20.48 0 0 1-15.6672 7.0656z m55.296-129.1264h-1.9456a20.48 20.48 0 0 1-18.432-22.016c0.6144-6.656 0.9216-13.4144 0.9216-20.48a216.064 216.064 0 0 0-2.9696-35.5328 20.48 20.48 0 1 1 40.3456-6.8608 244.224 244.224 0 0 1 3.584 42.3936c0 7.9872 0 16.0768-1.1264 23.9616a20.48 20.48 0 0 1-20.3776 18.5344z m-29.696-137.3184a20.48 20.48 0 0 1-17.8176-10.24 215.04 215.04 0 0 0-33.8944-44.1344 20.48 20.48 0 1 1 28.8768-28.9792 253.1328 253.1328 0 0 1 40.96 52.6336 20.48 20.48 0 0 1-7.5776 27.9552 20.48 20.48 0 0 1-10.5472 2.7648zM590.6432 749.6704a20.48 20.48 0 0 1-6.9632-39.7312A210.8416 210.8416 0 0 0 613.4784 696.32a20.48 20.48 0 1 1 19.7632 35.84 242.3808 242.3808 0 0 1-35.6352 16.1792 21.2992 21.2992 0 0 1-6.9632 1.3312zM512 763.392a251.392 251.392 0 0 1 0-502.784 20.48 20.48 0 0 1 0 40.96 210.432 210.432 0 0 0-38.2976 417.3824l-2.6624-3.9936a20.48 20.48 0 0 1 35.1232-21.0944l23.04 38.5024a20.48 20.48 0 0 1 0 20.48A20.48 20.48 0 0 1 512 763.392z" fill="#FFFFFF" p-id="2673"></path><path d="M593.92 589.824a20.48 20.48 0 0 1-11.776-3.7888l-81.92-57.344A20.48 20.48 0 0 1 491.52 512V373.4528a20.48 20.48 0 0 1 40.96 0V501.76l73.3184 51.2A20.48 20.48 0 0 1 593.92 589.824z" fill="#FFFFFF" p-id="2674"></path></svg>