<?xml version="1.0" standalone="no"?><!DOCTYPE svg PUBLIC "-//W3C//DTD SVG 1.1//EN" "http://www.w3.org/Graphics/SVG/1.1/DTD/svg11.dtd"><svg t="1618903307681" class="icon" viewBox="0 0 1024 1024" version="1.1" xmlns="http://www.w3.org/2000/svg" p-id="2527" xmlns:xlink="http://www.w3.org/1999/xlink" width="40" height="40"><defs><style type="text/css"></style></defs><path d="M512 512m-512 0a512 512 0 1 0 1024 0 512 512 0 1 0-1024 0Z" fill="#C5FFF6" p-id="2528"></path><path d="M512 512m-409.6 0a409.6 409.6 0 1 0 819.2 0 409.6 409.6 0 1 0-819.2 0Z" fill="#2BDDC2" p-id="2529"></path><path d="M302.08875 497.498802m14.481547-14.481547l0 0q14.481547-14.481547 28.963094 0l130.333921 130.333922q14.481547 14.481547 0 28.963094l0 0q-14.481547 14.481547-28.963093 0l-130.333922-130.333922q-14.481547-14.481547 0-28.963094Z" fill="#FFFFFF" p-id="2530"></path><path d="M432.287967 627.878853m14.481546-14.481546l231.704751-231.70475q14.481547-14.481547 28.963093 0l0 0q14.481547 14.481547 0 28.963093l-231.70475 231.70475q-14.481547 14.481547-28.963094 0l0 0q-14.481547-14.481547 0-28.963093Z" fill="#FFFFFF" p-id="2531"></path></svg>