<?xml version="1.0" standalone="no"?><!DOCTYPE svg PUBLIC "-//W3C//DTD SVG 1.1//EN" "http://www.w3.org/Graphics/SVG/1.1/DTD/svg11.dtd"><svg t="1618903283265" class="icon" viewBox="0 0 1024 1024" version="1.1" xmlns="http://www.w3.org/2000/svg" p-id="2338" width="40" height="40" xmlns:xlink="http://www.w3.org/1999/xlink"><defs><style type="text/css"></style></defs><path d="M512 512m-512 0a512 512 0 1 0 1024 0 512 512 0 1 0-1024 0Z" fill="#FFDCEA" p-id="2339"></path><path d="M512 512m-409.6 0a409.6 409.6 0 1 0 819.2 0 409.6 409.6 0 1 0-819.2 0Z" fill="#F75C76" p-id="2340"></path><path d="M367.184531 338.221437m14.481547 14.481547l289.630938 289.630938q14.481547 14.481547 0 28.963094l0 0q-14.481547 14.481547-28.963094 0l-289.630938-289.630938q-14.481547-14.481547 0-28.963094l0 0q14.481547-14.481547 28.963094 0Z" fill="#FFFFFF" p-id="2341"></path><path d="M685.778563 367.184531m-14.481547 14.481547l-289.630938 289.630938q-14.481547 14.481547-28.963094 0l0 0q-14.481547-14.481547 0-28.963094l289.630938-289.630938q14.481547-14.481547 28.963094 0l0 0q14.481547 14.481547 0 28.963094Z" fill="#FFFFFF" p-id="2342"></path></svg>