<?xml version="1.0" standalone="no"?><!DOCTYPE svg PUBLIC "-//W3C//DTD SVG 1.1//EN" "http://www.w3.org/Graphics/SVG/1.1/DTD/svg11.dtd"><svg t="1617160696728" class="icon" viewBox="0 0 1024 1024" version="1.1" xmlns="http://www.w3.org/2000/svg" p-id="1899" width="22" height="22" xmlns:xlink="http://www.w3.org/1999/xlink"><defs><style type="text/css"></style></defs><path d="M862.705298 0.001302a112.215469 112.215469 0 0 1 111.434386 105.706451v918.292247l-114.298354-96.854187-62.746933-57.018996-68.474868-59.882965 28.639678 94.250579h-598.829648A105.966812 105.966812 0 0 1 49.859141 798.78798V105.707753A108.049697 108.049697 0 0 1 158.429559 0.001302h704.275739z m-260.360717 242.395827h-1.301803l-8.591904 8.591904a343.676146 343.676146 0 0 1 130.180358 65.6109 465.2646 465.2646 0 0 0-159.86148-48.427093 432.198789 432.198789 0 0 0-104.144286 0h-8.591904a377.7834 377.7834 0 0 0-120.02629 31.243286c-19.787414 8.591904-31.243286 14.319839-31.243286 14.319839a304.882399 304.882399 0 0 1 136.949737-65.6109l-5.727936-5.727936a257.757109 257.757109 0 0 0-148.405609 54.155029 668.60632 668.60632 0 0 0-78.108215 299.675185s42.699158 74.202804 159.86148 78.108215c0 0 16.923447-22.911743 34.367615-42.699158a168.974105 168.974105 0 0 1-91.386612-59.882965 113.777633 113.777633 0 0 1 14.31984 8.331543h2.603607a3.384689 3.384689 0 0 1 2.343246 1.301804 3.124329 3.124329 0 0 0 2.603608 1.301803c14.059479 5.727936 28.118957 11.455872 39.835189 17.183808a353.049132 353.049132 0 0 0 76.806412 22.911743 445.216825 445.216825 0 0 0 136.949737 0 416.577146 416.577146 0 0 0 77.066772-23.953186 663.919827 663.919827 0 0 0 59.622604-31.503647 171.056991 171.056991 0 0 1-94.25058 59.882965c14.059479 20.047775 34.107254 42.699158 34.107254 42.699157a223.129134 223.129134 0 0 0 165.068694-73.682082 664.96127 664.96127 0 0 0-78.108214-299.414824 256.715667 256.715667 0 0 0-146.062362-53.634308h2.603607z m7.029739 188.501159a57.018997 57.018997 0 1 1-54.155029 57.018997 55.456833 55.456833 0 0 1 54.155029-57.018997z m-193.708373 0a57.018997 57.018997 0 1 1-54.415389 57.018997A55.456833 55.456833 0 0 1 414.364144 430.898288z" fill="#515E7B" p-id="1900"></path><path d="M601.82386 242.397129h-1.301804l-8.591904 8.591904a343.676146 343.676146 0 0 1 130.180359 65.6109 465.2646 465.2646 0 0 0-159.86148-48.427093 432.198789 432.198789 0 0 0-104.144287 0h-8.591903a377.7834 377.7834 0 0 0-120.026291 31.243286c-19.787414 8.591904-31.243286 14.319839-31.243286 14.319839a304.882399 304.882399 0 0 1 136.949737-65.6109l-5.727936-5.727936a257.757109 257.757109 0 0 0-148.405608 54.155029 668.60632 668.60632 0 0 0-78.108215 299.675185s42.699158 74.202804 159.86148 78.108215c0 0 16.923447-22.911743 34.367614-42.699158a168.974105 168.974105 0 0 1-91.386611-59.882965 113.777633 113.777633 0 0 1 14.319839 8.331543h2.603608a3.384689 3.384689 0 0 1 2.343246 1.301804 3.124329 3.124329 0 0 0 2.603607 1.301803c14.059479 5.727936 28.118957 11.455872 39.83519 17.183808a353.049132 353.049132 0 0 0 76.806411 22.911743 445.216825 445.216825 0 0 0 136.949737 0 416.577146 416.577146 0 0 0 77.587494-23.953186 663.919827 663.919827 0 0 0 59.622604-31.503647 171.056991 171.056991 0 0 1-94.25058 59.882965c14.059479 20.047775 34.107254 42.699158 34.107254 42.699157a223.129134 223.129134 0 0 0 165.068694-73.682082 664.96127 664.96127 0 0 0-78.108214-299.414824 256.715667 256.715667 0 0 0-146.062362-53.634308h2.603607z m7.029739 188.501159a57.018997 57.018997 0 1 1-54.155029 57.018997 55.456833 55.456833 0 0 1 54.155029-57.018997z m-193.708373 0a57.018997 57.018997 0 1 1-54.41539 57.018997A55.456833 55.456833 0 0 1 414.364144 430.898288z" fill="#FFFFFF" p-id="1901"></path></svg>