<?xml version="1.0" standalone="no"?><!DOCTYPE svg PUBLIC "-//W3C//DTD SVG 1.1//EN" "http://www.w3.org/Graphics/SVG/1.1/DTD/svg11.dtd"><svg t="1617160735930" class="icon" viewBox="0 0 1024 1024" version="1.1" xmlns="http://www.w3.org/2000/svg" p-id="2086" xmlns:xlink="http://www.w3.org/1999/xlink" width="22" height="22"><defs><style type="text/css"></style></defs><path d="M512 512m-512 0a512 512 0 1 0 1024 0 512 512 0 1 0-1024 0Z" fill="#515E7B" p-id="2087"></path><path d="M407.552 759.552l9.984-149.504 271.104-244.224c12.032-11.008-2.56-16.128-18.432-6.656l-334.592 211.456-144.64-45.824c-31.232-8.96-31.488-30.464 6.912-46.08l563.2-217.344c25.6-11.776 51.2 6.4 40.704 45.824l-95.488 452.352c-6.656 32-25.6 39.68-52.992 25.6l-146.176-108.032-70.144 68.096a38.144 38.144 0 0 1-29.44 14.848z" fill="#FFFFFF" p-id="2088"></path></svg>