<?xml version="1.0" standalone="no"?><!DOCTYPE svg PUBLIC "-//W3C//DTD SVG 1.1//EN" "http://www.w3.org/Graphics/SVG/1.1/DTD/svg11.dtd"><svg t="1618903351861" class="icon" viewBox="0 0 1024 1024" version="1.1" xmlns="http://www.w3.org/2000/svg" p-id="2813" width="20" height="20" xmlns:xlink="http://www.w3.org/1999/xlink"><defs><style type="text/css"></style></defs><path d="M709.570095 118.362074a37.044619 37.044619 0 0 1-16.865843-3.614109A424.657824 424.657824 0 0 0 630.059694 90.352729 37.64697 37.64697 0 0 1 650.539646 18.974073a543.923426 543.923426 0 0 1 74.992765 27.406994 37.64697 37.64697 0 0 1-15.962316 71.981007zM870.699128 859.8568a38.550498 38.550498 0 0 1-24.696413-9.035273 37.948146 37.948146 0 0 1-2.710582-53.308109 426.163703 426.163703 0 0 0 63.24691-96.376244 37.64697 37.64697 0 1 1 67.764547 32.828158 518.624662 518.624662 0 0 1-74.089238 112.940911 37.345794 37.345794 0 0 1-29.515224 12.950557z m113.543262-265.335846h-3.614109a37.64697 37.64697 0 0 1-33.731685-40.959904q1.807055-20.781128 1.807054-41.562255a430.68134 430.68134 0 0 0-6.324691-73.788061 37.64697 37.64697 0 1 1 74.390413-12.649382A517.721135 517.721135 0 0 1 1023.997591 511.998795c0 16.263491 0 32.526982-2.409407 48.489298a37.345794 37.345794 0 0 1-37.345794 34.032861z m-60.235152-281.900513a37.345794 37.345794 0 0 1-32.526983-18.672897 451.763643 451.763643 0 0 0-70.475128-90.352729A37.64697 37.64697 0 1 1 873.40971 150.587881a508.685862 508.685862 0 0 1 82.522158 107.218571 37.345794 37.345794 0 0 1-32.526982 56.319868zM673.429004 995.687069a37.64697 37.64697 0 0 1-12.649382-72.884534 473.448298 473.448298 0 0 0 60.235152-28.009346 37.64697 37.64697 0 1 1 36.442267 65.656316A507.481159 507.481159 0 0 1 686.379561 993.880014a38.851673 38.851673 0 0 1-12.950557 1.807055zM511.998795 1023.997591a511.998795 511.998795 0 0 1 0-1023.997591 37.64697 37.64697 0 0 1 0 75.29394 436.704855 436.704855 0 0 0-69.872776 867.687371l-9.938801-16.263492a37.64697 37.64697 0 0 1 64.752789-38.851673l47.284595 79.209226A37.345794 37.345794 0 0 1 511.998795 1023.997591z" fill="#FFBC50" p-id="2814"></path><path d="M680.356046 667.405488a37.044619 37.044619 0 0 1-21.383479-6.927042L490.31414 542.116371a38.249322 38.249322 0 0 1-15.962315-30.117576V227.3877a37.64697 37.64697 0 0 1 75.293941 0v264.733495l152.394935 106.61622a37.64697 37.64697 0 0 1-21.684655 68.668073z" fill="#FFBC50" p-id="2815"></path></svg>